<svg width="426" height="426" viewBox="0 0 426 426" fill="none" xmlns="http://www.w3.org/2000/svg">
<rect width="426" height="426" rx="72" fill="#3CFF73"/>
<path d="M102.486 281.4C67.2363 281.4 42.4863 255.6 42.4863 219C42.4863 182.4 67.2363 156.6 102.486 156.6C137.736 156.6 162.486 182.4 162.486 219C162.486 255.6 137.736 281.4 102.486 281.4ZM102.486 263.4C124.536 263.4 139.986 245.1 139.986 219C139.986 192.9 124.536 174.6 102.486 174.6C80.4363 174.6 64.9863 192.9 64.9863 219C64.9863 245.1 80.4363 263.4 102.486 263.4ZM239.269 211.95C251.419 211.95 258.169 205.65 258.169 194.4C258.169 183.3 251.419 177 239.269 177H175.969V159H239.269C264.769 159 280.669 172.65 280.669 194.4C280.669 216.3 264.769 229.95 239.269 229.95H217.969C204.469 229.95 196.969 237.45 196.969 250.95V279H175.969V250.95C175.969 225.9 190.969 211.95 217.969 211.95H239.269ZM363.234 279L336.984 236.55L310.734 279H285.984L324.684 216.6L288.984 159H313.584L338.484 199.05L363.384 159H387.984L350.784 219L387.984 279H363.234Z" fill="#06140B"/>
</svg>
