<svg width="512" height="512" viewBox="0 0 512 512" fill="none" xmlns="http://www.w3.org/2000/svg">
<path d="M384 32H128C74.9807 32 32 74.9807 32 128V384C32 437.019 74.9807 480 128 480H384C437.019 480 480 437.019 480 384V128C480 74.9807 437.019 32 384 32Z" fill="url(#paint0_linear_3180_54)"/>
<path d="M79.7762 282C31.5762 282 31.5762 212 79.7762 212H149.276C197.476 212 197.476 282 149.276 282H79.7762ZM97.7762 272H131.276C165.676 272 165.676 222 131.276 222H97.7762C63.3762 222 63.3762 272 97.7762 272ZM298.41 222H203.01V212H316.41C343.91 212 343.91 257 316.41 257H231.01V282H203.01V247H298.41C312.21 247 312.21 222 298.41 222ZM438.464 282L402.764 255.9L360.564 282H341.564L394.064 249.6L342.564 212H379.064L413.864 237.4L454.964 212H473.964L422.564 243.7L474.964 282H438.464Z" fill="#06140B"/>
<defs>
<linearGradient id="paint0_linear_3180_54" x1="32" y1="32" x2="480" y2="480" gradientUnits="userSpaceOnUse">
<stop stop-color="#34FF8A"/>
<stop offset="1" stop-color="#1BC86A"/>
</linearGradient>
</defs>
</svg>
