<svg width="599" height="268" viewBox="0 0 599 268" fill="none" xmlns="http://www.w3.org/2000/svg">
<rect width="599" height="268" rx="127" fill="url(#paint0_linear_3237_71)"/>
<path d="M140.437 199.4C105.187 199.4 80.4365 173.6 80.4365 137C80.4365 100.4 105.187 74.6 140.437 74.6C175.687 74.6 200.437 100.4 200.437 137C200.437 173.6 175.687 199.4 140.437 199.4ZM140.437 181.4C162.487 181.4 177.937 163.1 177.937 137C177.937 110.9 162.487 92.6 140.437 92.6C118.387 92.6 102.937 110.9 102.937 137C102.937 163.1 118.387 181.4 140.437 181.4ZM277.219 129.95C289.369 129.95 296.119 123.65 296.119 112.4C296.119 101.3 289.369 95 277.219 95H213.919V77H277.219C302.719 77 318.619 90.65 318.619 112.4C318.619 134.3 302.719 147.95 277.219 147.95H255.919C242.419 147.95 234.919 155.45 234.919 168.95V197H213.919V168.95C213.919 143.9 228.919 129.95 255.919 129.95H277.219ZM331.193 148.7C327.743 150.95 326.093 149.9 327.443 146L352.493 77H373.493L416.993 197H394.643L383.093 165.05H365.843C350.093 165.05 341.093 170 335.693 185L331.343 197H308.993L312.743 186.65C323.393 157.1 339.443 147.05 370.943 147.05H376.493L362.993 109.85L351.593 141.2C345.593 141.95 337.643 144.8 331.193 148.7ZM444.778 102.5C444.778 108.5 448.078 112.25 460.828 118.7L494.878 135.8C519.028 147.95 525.778 158.15 525.778 171.8C525.778 187.55 513.928 197 492.928 197H422.278V179H493.978C501.328 179 504.778 176.6 504.778 171.95C504.778 167.3 502.378 163.1 485.128 154.4L450.928 137.15C432.028 127.55 423.778 116.9 423.778 102.5C423.778 86.3 435.328 77 456.778 77H519.778V95H453.778C448.828 95 444.778 97.55 444.778 102.5Z" fill="#06140B"/>
<defs>
<linearGradient id="paint0_linear_3237_71" x1="299.5" y1="0" x2="299.5" y2="268" gradientUnits="userSpaceOnUse">
<stop offset="0.341346" stop-color="#2DE67E"/>
<stop offset="0.865385" stop-color="#198046"/>
</linearGradient>
</defs>
</svg>
